/* XPM */
static char * bar_work_xpm[] = {
"24 28 124 2",
"  	c #F6F6F6",
". 	c #EEEEEE",
"+ 	c #F5F5F5",
"@ 	c #EDEDED",
"# 	c #ECECEC",
"$ 	c #F4F4F4",
"% 	c #EBEBEB",
"& 	c #F3F3F3",
"* 	c #E9E9E9",
"= 	c #E8E8E8",
"- 	c #E5E5E5",
"; 	c #E2E2E2",
"> 	c #ECDFD1",
", 	c #ECE9E9",
"' 	c #ECD1D1",
") 	c #F2F2F2",
"! 	c #E7E7E7",
"~ 	c #FAB68D",
"{ 	c #FA492E",
"] 	c #E6E6E6",
"^ 	c #E1E1E1",
"/ 	c #F1BAB2",
"( 	c #FAC38D",
"_ 	c #F69C9C",
": 	c #FF2200",
"< 	c #FF5500",
"[ 	c #FFEDED",
"} 	c #FAEBEB",
"| 	c #F1B2B2",
"1 	c #EBCFCF",
"2 	c #F1F1F1",
"3 	c #E3E3E3",
"4 	c #F18A7A",
"5 	c #F9492D",
"6 	c #D8D8D8",
"7 	c #D4D4D4",
"8 	c #FFAA77",
"9 	c #FFFFFF",
"0 	c #FDECEC",
"a 	c #DFDFDF",
"b 	c #E4E4E4",
"c 	c #E9CECE",
"d 	c #F9482D",
"e 	c #FD8E7E",
"f 	c #FF7777",
"g 	c #FD7E7E",
"h 	c #D1D1D1",
"i 	c #F0F0F0",
"j 	c #F9B58C",
"k 	c #F59B9B",
"l 	c #DADADA",
"m 	c #FFFFEE",
"n 	c #F5A69B",
"o 	c #8C8C8C",
"p 	c #DEDEDE",
"q 	c #F9F9F9",
"r 	c #8C6363",
"s 	c #CCC2C2",
"t 	c #EFEFEF",
"u 	c #E7CFCB",
"v 	c #CECECE",
"w 	c #AAAAAA",
"x 	c #8C553A",
"y 	c #C8BEBA",
"z 	c #FF8877",
"A 	c #B1B1B1",
"B 	c #969696",
"C 	c #888888",
"D 	c #8B2C2C",
"E 	c #CAC0C0",
"F 	c #D7D7D7",
"G 	c #8B6262",
"H 	c #F49999",
"I 	c #777777",
"J 	c #990000",
"K 	c #880000",
"L 	c #997777",
"M 	c #7E5547",
"N 	c #D1CFCF",
"O 	c #DDDDDD",
"P 	c #C8B0B0",
"Q 	c #999999",
"R 	c #BDBDBD",
"S 	c #773311",
"T 	c #770000",
"U 	c #7D0E0E",
"V 	c #707070",
"W 	c #BEBEBE",
"X 	c #DCDCDC",
"Y 	c #CFCDCD",
"Z 	c #AC9595",
"` 	c #989898",
" .	c #8D8D8D",
"..	c #774444",
"+.	c #662200",
"@.	c #6D0E0E",
"#.	c #704747",
"$.	c #DBDBDB",
"%.	c #B6B6B6",
"&.	c #848484",
"*.	c #545454",
"=.	c #764949",
"-.	c #550000",
";.	c #441100",
">.	c #464646",
",.	c #818181",
"'.	c #847474",
").	c #B6AFAF",
"!.	c #CDCDCD",
"~.	c #B1AEAE",
"{.	c #393939",
"].	c #462B2B",
"^.	c #B5AEAE",
"/.	c #CDCBCB",
"(.	c #D9D9D9",
"_.	c #CCCACA",
":.	c #B7B7B7",
"<.	c #B4B4B4",
"[.	c #B4ADAD",
"}.	c #EAEAEA",
"|.	c #D5D5D5",
"1.	c #D3D3D3",
"2.	c #D2D2D2",
"3.	c #636363",
"                                                ",
"  . . . . . . . . . . . . . . . . . . . . . . . ",
"+ @ @ @ @ @ @ @ @ @ @ @ @ @ @ @ @ @ @ @ @ @ @ @ ",
"+ # # # # # # # # # # # # # # # # # # # # # # # ",
"$ % % % % % % % % % % % % % % % % % % % % % % % ",
"& * * * * * * * * * * * * * * * * * * * * * * * ",
"& = = = = = = = = - ; > , ' = = = = = = = = = = ",
") ! ! ! ! ! ! - % ~ { { ~ ~ ; ] ! ! ! ! ! ! ! ! ",
") ] ] ] ] ] ^ / ( _ : < [   } | 1 ] ] ] ] ] ] ] ",
"2 - - - - 3 4 5 6 [ 7 8 [ 9 0 5 4 a - - - - - - ",
"2 b b b b c d e 9 9 9 f < f 8 g d h b b b b b b ",
"i 3 3 3 ^ j k l 9 9 [ : : < f m n o a 3 3 3 3 3 ",
"i ; ; ; p q [ f 8 [ 8 : : : 8 i 7 r s ; ; ; ; ; ",
"t ^ ^ ^ u q v : : < v v f f 7 6 w x y ^ ^ ^ ^ ^ ",
". a a a 7 # z : : f m 9 i A f B C D E a a a a a ",
". p p p F G H f : f . 6 v I J K L M N p p p p p ",
"@ O O O O P Q R Q C w w Q S T U V W O O O O O O ",
"@ X X X X Y Z `  .S K ....+.@.#. .Y X X X X X X ",
"# $.$.$.$.$.%.&.*.=.-.;.>.,.*.'.).$.$.$.$.$.$.$.",
"# l l l l l l !.~.{.].>.*.>.^./.l l l l l l l l ",
"% (.(.(.(.(.(.(.(._.:.<.[._.(.(.(.(.(.(.(.(.(.(.",
"% 6 6 6 6 6 6 6 6 6 6 6 6 6 6 6 6 6 6 6 6 6 6 6 ",
"}.F F F F F F F F F F F F F F F F F F F F F F F ",
"* |.|.|.|.|.|.|.|.|.|.|.|.|.|.|.|.|.|.|.|.|.|.|.",
"* 7 7 7 7 7 7 7 7 7 7 7 7 7 7 7 7 7 7 7 7 7 7 7 ",
"= 1.1.1.1.1.1.1.1.1.1.1.1.1.1.1.1.1.1.1.1.1.1.1.",
"= 2.2.2.2.2.2.2.2.2.2.2.2.2.2.2.2.2.2.2.2.2.2.2.",
"3.3.3.3.3.3.3.3.3.3.3.3.3.3.3.3.3.3.3.3.3.3.3.3."};
