/* XPM */
static char * bullet_xpm[] = {
"22 22 12 1",
" 	c #507CC8",
".	c #3868B0",
"+	c #B7C8E3",
"@	c #5880BD",
"#	c #FCFDFE",
"$	c #FFFFFF",
"%	c #C5D3E8",
"&	c #567EBC",
"*	c #EEF2F9",
"=	c #C1D0E7",
"-	c #527CBA",
";	c #284890",
"                      ",
"......................",
"......................",
"......................",
"......................",
"......................",
"......................",
"..........+@..........",
"..........#$%&........",
"..........*$$$%&......",
"..........*$$$$$%@....",
"..........*$$$$$$%....",
"..........*$$$$=@.....",
"..........*$$%@.......",
"..........$%@.........",
"..........-...........",
"......................",
"......................",
"......................",
"......................",
"......................",
";;;;;;;;;;;;;;;;;;;;;;"};
