/* XPM */
static char * bullet_black_xpm[] = {
"22 22 12 1",
" 	c None",
".	c #C8CCC8",
"+	c #C0CCC0",
"@	c #484C48",
"#	c #A8ACA8",
"$	c #000800",
"%	c #000000",
"&	c #384038",
"*	c #A8B0A8",
"=	c #101410",
"-	c #404040",
";	c #B0B0B0",
"......................",
"......................",
"......................",
"......................",
"......................",
"......................",
"......................",
".........+@#..........",
"..........$%&*........",
"..........=%%%&*......",
"..........=%%%%%&#....",
"..........=%%%%%%&....",
"..........=%%%%-#.....",
"..........=%%&#.......",
"..........%&#.........",
"..........;...........",
"......................",
"......................",
"......................",
"......................",
"......................",
"......................"};
