/* XPM */
static char * button_focus_pressed_xpm[] = {
"26 26 131 2",
"  	c None",
". 	c #7BA8E7",
"+ 	c #6390CF",
"@ 	c #0B3877",
"# 	c #4673B2",
"$ 	c #275493",
"% 	c #0E3B7A",
"& 	c #4976B5",
"* 	c #295695",
"= 	c #103D7C",
"- 	c #4D7AB8",
"; 	c #2C5997",
"> 	c #13407E",
", 	c #2F5C9A",
"' 	c #6F9CDA",
") 	c #507DBB",
"! 	c #154280",
"~ 	c #325F9C",
"{ 	c #729FDC",
"] 	c #5481BE",
"^ 	c #184582",
"/ 	c #3663A0",
"( 	c #76A3E0",
"_ 	c #5885C2",
": 	c #5074B0",
"< 	c #183850",
"[ 	c #203C50",
"} 	c #203850",
"| 	c #183C50",
"1 	c #6890C8",
"2 	c #1B4885",
"3 	c #3865A2",
"4 	c #78A5E2",
"5 	c #5B88C5",
"6 	c #4068A0",
"7 	c #F8FCF8",
"8 	c #F8ECE8",
"9 	c #183848",
"0 	c #98B4D8",
"a 	c #1D4A87",
"b 	c #3C69A5",
"c 	c #7BA8E4",
"d 	c #5F8CC8",
"e 	c #486CA0",
"f 	c #B0B0B0",
"g 	c #B0B0A8",
"h 	c #204D89",
"i 	c #3E6BA7",
"j 	c #7EABE7",
"k 	c #628FCB",
"l 	c #5070A0",
"m 	c #B0B8B8",
"n 	c #B8B4B0",
"o 	c #A0B8D8",
"p 	c #224F8B",
"q 	c #416EA9",
"r 	c #81AEE9",
"s 	c #6693CE",
"t 	c #B8BCB8",
"u 	c #A0BCE0",
"v 	c #25528D",
"w 	c #4471AC",
"x 	c #83B0EB",
"y 	c #6996D1",
"z 	c #5874A0",
"A 	c #C0BCC0",
"B 	c #A8BCE0",
"C 	c #27548F",
"D 	c #4774AF",
"E 	c #87B4EF",
"F 	c #6D9AD5",
"G 	c #5878A8",
"H 	c #C8CCC8",
"I 	c #A8C0E0",
"J 	c #2A5792",
"K 	c #4A77B2",
"L 	c #89B6F1",
"M 	c #709DD8",
"N 	c #607CA8",
"O 	c #D0D4D0",
"P 	c #2C5994",
"Q 	c #4D7AB4",
"R 	c #8CB9F3",
"S 	c #74A1DB",
"T 	c #6080A8",
"U 	c #D8D8D8",
"V 	c #D8DCD8",
"W 	c #A8C4E0",
"X 	c #2F5C96",
"Y 	c #507DB7",
"Z 	c #8FBCF6",
"` 	c #77A4DE",
" .	c #6080B0",
"..	c #E0E0D8",
"+.	c #E0E0E0",
"@.	c #B0C8E8",
"#.	c #315E98",
"$.	c #5380B9",
"%.	c #92BFF8",
"&.	c #7BA8E1",
"*.	c #6884B0",
"=.	c #34619A",
"-.	c #5683BC",
";.	c #95C2FB",
">.	c #7EABE4",
",.	c #6888B8",
"'.	c #203C48",
").	c #B0CCF0",
"!.	c #36639C",
"~.	c #5986BF",
"{.	c #98C5FE",
"].	c #82AFE8",
"^.	c #98B8E8",
"/.	c #B8CCF0",
"(.	c #39669F",
"_.	c #5C89C1",
":.	c #9BC8FF",
"<.	c #86B3EB",
"[.	c #3C69A1",
"}.	c #89B6EE",
"|.	c #5F8CC4",
"1.	c #3E6BA3",
"2.	c #8DBAF1",
"3.	c #628FC6",
"4.	c #416EA5",
"5.	c #90BDF4",
"6.	c #6592C9",
"7.	c #4370A7",
"8.	c #6895CC",
"9.	c #4673AA",
"0.	c #4875AC",
". . . . . . . . . . . . . . . . . . . . . . . . . . ",
"+ + + + + + + + + + + + + + + + + + + + + + + + + @ ",
"# # # # # # # # # # # # # # # # # # # # # # # # $ % ",
"& & & & & & & & & & & & & & & & & & & & & & & & * = ",
"- - - - - - - - - - - - - - - - - - - - - - - - ; > ",
", ' ) ) ) ) ) ) ) ) ) ) ) ) ) ) ) ) ) ) ) ) ) ) , ! ",
"~ { ] ] ] ] ] ] ] ] ] ] ] ] ] ] ] ] ] ] ] ] ] ] ~ ^ ",
"/ ( _ _ _ _ : < [ } | } [ < [ } | } | 1 _ _ _ _ / 2 ",
"3 4 5 5 5 5 6 [ 7 8 8 8 8 8 8 8 8 8 9 0 5 5 5 5 3 a ",
"b c d d d d e 9 8 f g g g g g f g 8 [ 0 d d d d b h ",
"i j k k k k l [ 8 m n n n n n m n 8 9 o k k k k i p ",
"q r s s s s l 9 8 t t t t t t t t 8 | u s s s s q v ",
"w x y y y y z [ 8 t A A A A A t A 8 9 B y y y y w C ",
"D E F F F F G < 8 H H H H H H H H 8 [ I F F F F D J ",
"K L M M M M N [ 8 O O O O O O O O 8 < I M M M M K P ",
"Q R S S S S T 9 8 U V V V V V U V 8 [ W S S S S Q X ",
"Y Z ` ` ` `  .[ 8 ..+.+.+.+.+...+.8 9 @.` ` ` ` Y #.",
"$.%.&.&.&.&.*.9 O t t t t t t t t O < @.&.&.&.&.$.=.",
"-.;.>.>.>.>.,.[ < [ < [ < [ < [ < '.} ).>.>.>.>.-.!.",
"~.{.].].].].^./././././././././././././.].].].].~.(.",
"_.:.<.<.<.<.<.<.<.<.<.<.<.<.<.<.<.<.<.<.<.<.<.<._.[.",
"}.}.}.}.}.}.}.}.}.}.}.}.}.}.}.}.}.}.}.}.}.}.}.}.|.1.",
"2.2.2.2.2.2.2.2.2.2.2.2.2.2.2.2.2.2.2.2.2.2.2.2.3.4.",
"5.5.5.5.5.5.5.5.5.5.5.5.5.5.5.5.5.5.5.5.5.5.5.5.6.7.",
"8.8.8.8.8.8.8.8.8.8.8.8.8.8.8.8.8.8.8.8.8.8.8.8.8.9.",
"0.0.0.0.0.0.0.0.0.0.0.0.0.0.0.0.0.0.0.0.0.0.0.0.0.0."};
