/* XPM */
static char * button_unfocus_close_xpm[] = {
"26 26 64 1",
" 	c None",
".	c #D4D4D4",
"+	c #D5D5D5",
"@	c #C1C1C1",
"#	c #D6D6D6",
"$	c #C3C3C3",
"%	c #ADADAD",
"&	c #D7D7D7",
"*	c #C4C4C4",
"=	c #AFAFAF",
"-	c #D9D9D9",
";	c #C7C7C7",
">	c #B2B2B2",
",	c #DADADA",
"'	c #C8C8C8",
")	c #B4B4B4",
"!	c #9A9A9A",
"~	c #DBDBDB",
"{	c #CACACA",
"]	c #B7B7B7",
"^	c #9D9D9D",
"/	c #DDDDDD",
"(	c #CCCCCC",
"_	c #BABABA",
":	c #A0A0A0",
"<	c #DEDEDE",
"[	c #CECECE",
"}	c #BCBCBC",
"|	c #A1A1A1",
"1	c #DFDFDF",
"2	c #D0D0D0",
"3	c #BFBFBF",
"4	c #464646",
"5	c #A4A4A4",
"6	c #E0E0E0",
"7	c #D1D1D1",
"8	c #A6A6A6",
"9	c #E2E2E2",
"0	c #A8A8A8",
"a	c #E3E3E3",
"b	c #ABABAB",
"c	c #E4E4E4",
"d	c #C9C9C9",
"e	c #ACACAC",
"f	c #E6E6E6",
"g	c #D2D2D2",
"h	c #E7E7E7",
"i	c #DCDCDC",
"j	c #CFCFCF",
"k	c #E8E8E8",
"l	c #B3B3B3",
"m	c #EAEAEA",
"n	c #E5E5E5",
"o	c #B6B6B6",
"p	c #E1E1E1",
"q	c #B8B8B8",
"r	c #ECECEC",
"s	c #EDEDED",
"t	c #BDBDBD",
"u	c #EEEEEE",
"v	c #F0F0F0",
"w	c #E9E9E9",
"x	c #F1F1F1",
"y	c #C5C5C5",
"..........................",
"+@@@@@@@@@@@@@@@@@@@@@@@@@",
"#$%%%%%%%%%%%%%%%%%%%%%%%%",
"&*========================",
"-;>>>>>>>>>>>>>>>>>>>>>>>>",
",'))))))))))))))))))))))!'",
"~{]]]]]]]]]]]]]]]]]]]]]]^{",
"/(______________________:(",
"<[}}}}}}}}}}}}}}}}}}}}}}|[",
"12333333344444444;33333352",
"67@@@@@@@47-----4-@@@@@@87",
"9.*******4(*****4~******0.",
"a#;;;;;;;4[;;;;;4/;;;;;;b#",
"c&ddddddd42ddddd4<dddddde&",
"f-(((((((4g(((((46((((((=-",
"hijjjjjjj4+jjjjj49jjjjjj>i",
"k/777777744444444a777777l/",
"m1......-nnnnnnnnn......o1",
"mp######################qp",
"ra----------------------_a",
"sniiiiiiiiiiiiiiiiiiiiiitn",
"uh<<<<<<<<<<<<<<<<<<<<<<<<",
"vwpppppppppppppppppppppppp",
"xmaaaaaaaaaaaaaaaaaaaaaaaa",
"fyyyyyyyyyyyyyyyyyyyyyyyyy",
"':::::::::::::::::::::::::"};
