/* XPM */
static char * button_focus_close_xpm[] = {
"27 26 130 2",
"  	c #7BA8E7",
". 	c #6390CF",
"+ 	c #0B3877",
"@ 	c #4673B2",
"# 	c #275493",
"$ 	c #0E3B7A",
"% 	c #4976B5",
"& 	c #295695",
"* 	c #103D7C",
"= 	c #4D7AB8",
"- 	c #2C5997",
"; 	c #13407E",
"> 	c #2F5C9A",
", 	c #6F9CDA",
"' 	c #507DBB",
") 	c #154280",
"! 	c #325F9C",
"~ 	c #729FDC",
"{ 	c #5481BE",
"] 	c #184582",
"^ 	c #3663A0",
"/ 	c #76A3E0",
"( 	c #5885C2",
"_ 	c #527DB6",
": 	c #1E3B50",
"< 	c #6E95CA",
"[ 	c #1B4885",
"} 	c #3865A2",
"| 	c #78A5E2",
"1 	c #5B88C5",
"2 	c #4B71A3",
"3 	c #F0F0F0",
"4 	c #1E3A52",
"5 	c #9CB7DC",
"6 	c #1D4A87",
"7 	c #3C69A5",
"8 	c #7BA8E4",
"9 	c #5F8CC8",
"0 	c #4F74A6",
"a 	c #FFEDED",
"b 	c #B1B1B1",
"c 	c #D8D8D8",
"d 	c #9FBADE",
"e 	c #204D89",
"f 	c #3E6BA7",
"g 	c #7EABE7",
"h 	c #628FCB",
"i 	c #5176A8",
"j 	c #BFBFBF",
"k 	c #A1BCDF",
"l 	c #224F8B",
"m 	c #416EA9",
"n 	c #81AEE9",
"o 	c #6693CE",
"p 	c #547AAB",
"q 	c #BDBDBD",
"r 	c #7AA1D4",
"s 	c #25528D",
"t 	c #4471AC",
"u 	c #83B0EB",
"v 	c #6996D1",
"w 	c #577CAD",
"x 	c #C8C8C8",
"y 	c #FFFFFF",
"z 	c #A5C0E3",
"A 	c #27548F",
"B 	c #4774AF",
"C 	c #87B4EF",
"D 	c #6D9AD5",
"E 	c #5A80B1",
"F 	c #D4D4D4",
"G 	c #DADADA",
"H 	c #CECECE",
"I 	c #B8B8B8",
"J 	c #A7C2E5",
"K 	c #2A5792",
"L 	c #4A77B2",
"M 	c #89B6F1",
"N 	c #709DD8",
"O 	c #5D82B3",
"P 	c #A9C4E7",
"Q 	c #2C5994",
"R 	c #4D7AB4",
"S 	c #8CB9F3",
"T 	c #74A1DB",
"U 	c #87ADDF",
"V 	c #ABC6E9",
"W 	c #6D97CE",
"X 	c #E2E2E2",
"Y 	c #2F5C96",
"Z 	c #507DB7",
"` 	c #8FBCF6",
" .	c #77A4DE",
"..	c #6388B8",
"+.	c #ADC8EB",
"@.	c #315E98",
"#.	c #5380B9",
"$.	c #92BFF8",
"%.	c #7BA8E1",
"&.	c #668BBB",
"*.	c #B0CBED",
"=.	c #34619A",
"-.	c #5683BC",
";.	c #95C2FB",
">.	c #7EABE4",
",.	c #688EBD",
"'.	c #B1CCEE",
").	c #36639C",
"!.	c #5986BF",
"~.	c #98C5FE",
"{.	c #82AFE8",
"].	c #93B9EB",
"^.	c #B4CFF1",
"/.	c #39669F",
"(.	c #5C89C1",
"_.	c #9BC8FF",
":.	c #86B3EB",
"<.	c #3C69A1",
"[.	c #89B6EE",
"}.	c #5F8CC4",
"|.	c #3E6BA3",
"1.	c #8DBAF1",
"2.	c #628FC6",
"3.	c #416EA5",
"4.	c #90BDF4",
"5.	c #6592C9",
"6.	c #4370A7",
"7.	c #6895CC",
"8.	c #4673AA",
"9.	c #4875AC",
"                                                      ",
". . . . . . . . . . . . . . . . . . . . . . . . . . + ",
"@ @ @ @ @ @ @ @ @ @ @ @ @ @ @ @ @ @ @ @ @ @ @ @ @ # $ ",
"% % % % % % % % % % % % % % % % % % % % % % % % % & * ",
"= = = = = = = = = = = = = = = = = = = = = = = = = - ; ",
"> , ' ' ' ' ' ' ' ' ' ' ' ' ' ' ' ' ' ' ' ' ' ' ' > ) ",
"! ~ { { { { { { { { { { { { { { { { { { { { { { { ! ] ",
"^ / ( ( ( ( ( _ : : : : : : : : : < ( ( ( ( ( ( ( ^ [ ",
"} | 1 1 1 1 1 2 : 3 3 3 3 3 3 3 4 5 1 1 1 1 1 1 1 } 6 ",
"7 8 9 9 9 9 9 0 : a b b b b b c 4 d 9 9 9 9 9 9 9 7 e ",
"f g h h h h h i : a j j j j j c 4 k h h h h h h h f l ",
"m n o o o o o p : a q : : : : : : : : : r o o o o m s ",
"t u v v v v v w : a x : y y y y 3 y y : z v v v v t A ",
"B C D D D D D E : F G : a H H H I I a : J D D D D B K ",
"L M N N N N N O : : : : H I I I I H a : P N N N N L Q ",
"R S T T T T T U V V W : a X X X X X a : V T T T T R Y ",
"Z `  . . . . . . . ...: a 3 3 3 3 3 a : +. . . . .Z @.",
"#.$.%.%.%.%.%.%.%.%.&.: a y y y y y a : *.%.%.%.%.#.=.",
"-.;.>.>.>.>.>.>.>.>.,.: : : : : : : : : '.>.>.>.>.-.).",
"!.~.{.{.{.{.{.{.{.{.].^.^.^.^.^.^.^.^.^.^.{.{.{.{.!./.",
"(._.:.:.:.:.:.:.:.:.:.:.:.:.:.:.:.:.:.:.:.:.:.:.:.(.<.",
"[.[.[.[.[.[.[.[.[.[.[.[.[.[.[.[.[.[.[.[.[.[.[.[.[.}.|.",
"1.1.1.1.1.1.1.1.1.1.1.1.1.1.1.1.1.1.1.1.1.1.1.1.1.2.3.",
"4.4.4.4.4.4.4.4.4.4.4.4.4.4.4.4.4.4.4.4.4.4.4.4.4.5.6.",
"7.7.7.7.7.7.7.7.7.7.7.7.7.7.7.7.7.7.7.7.7.7.7.7.7.7.8.",
"9.9.9.9.9.9.9.9.9.9.9.9.9.9.9.9.9.9.9.9.9.9.9.9.9.9.9."};
