/* XPM */
static char * button_unfocus_max_xpm[] = {
"27 26 80 1",
" 	c #D4D4D4",
".	c #C1C1C1",
"+	c #757575",
"@	c #ADADAD",
"#	c #949494",
"$	c #777777",
"%	c #AFAFAF",
"&	c #969696",
"*	c #787878",
"=	c #B2B2B2",
"-	c #999999",
";	c #7A7A7A",
">	c #9A9A9A",
",	c #C8C8C8",
"'	c #B4B4B4",
")	c #7C7C7C",
"!	c #9D9D9D",
"~	c #CACACA",
"{	c #B7B7B7",
"]	c #7E7E7E",
"^	c #A0A0A0",
"/	c #CCCCCC",
"(	c #BABABA",
"_	c #464646",
":	c #C3C3C3",
"<	c #808080",
"[	c #A1A1A1",
"}	c #CECECE",
"|	c #BCBCBC",
"1	c #D6D6D6",
"2	c #818181",
"3	c #A4A4A4",
"4	c #D0D0D0",
"5	c #BFBFBF",
"6	c #C7C7C7",
"7	c #D8D8D8",
"8	c #838383",
"9	c #A6A6A6",
"0	c #D1D1D1",
"a	c #C9C9C9",
"b	c #D9D9D9",
"c	c #848484",
"d	c #A8A8A8",
"e	c #C4C4C4",
"f	c #868686",
"g	c #ABABAB",
"h	c #DDDDDD",
"i	c #898989",
"j	c #ACACAC",
"k	c #D7D7D7",
"l	c #DEDEDE",
"m	c #8A8A8A",
"n	c #D2D2D2",
"o	c #E0E0E0",
"p	c #8C8C8C",
"q	c #DCDCDC",
"r	c #CFCFCF",
"s	c #D5D5D5",
"t	c #E2E2E2",
"u	c #8E8E8E",
"v	c #B3B3B3",
"w	c #E3E3E3",
"x	c #8F8F8F",
"y	c #B6B6B6",
"z	c #DFDFDF",
"A	c #E5E5E5",
"B	c #919191",
"C	c #B8B8B8",
"D	c #E1E1E1",
"E	c #E6E6E6",
"F	c #939393",
"G	c #E8E8E8",
"H	c #959595",
"I	c #BDBDBD",
"J	c #979797",
"K	c #BEBEBE",
"L	c #989898",
"M	c #9C9C9C",
"N	c #C5C5C5",
"O	c #9E9E9E",
"                           ",
"..........................+",
"@@@@@@@@@@@@@@@@@@@@@@@@@#$",
"%%%%%%%%%%%%%%%%%%%%%%%%%&*",
"=========================-;",
">,'''''''''''''''''''''''>)",
"!~{{{{{{{{{{{{{{{{{{{{{{{!]",
"^/((((((_________:(((((((^<",
"[}||||||_}111111_1|||||||[2",
"34555555_6555555_7555555538",
"90......_a......_b.......9c",
"d eeeeee_/e_________/eeeedf",
"g1666666_}6_1hhhhhh_h6666gi",
"jkaaaaaa_4a_4aaaaaa_laaaajm",
"%b//////____n//////_o////%p",
"=qrrrrrstts_srrrrrr_trrrr=u",
"vh000000000_k000000_w0000vx",
"yz         _b      _A    yB",
"CD111111111_________E1111CF",
"(wbbbbbbbblGGGGGGGGGGbbbb(H",
"IAqqqqqqqqqqqqqqqqqqqqqqqIJ",
"lllllllllllllllllllllllllKL",
"DDDDDDDDDDDDDDDDDDDDDDDDD.>",
"wwwwwwwwwwwwwwwwwwwwwwwww:M",
"NNNNNNNNNNNNNNNNNNNNNNNNNNO",
"^^^^^^^^^^^^^^^^^^^^^^^^^^^"};
