/* XPM */
static char * button_unfocus_min_xpm[] = {
"26 26 53 1",
" 	c None",
".	c #D4D4D4",
"+	c #C1C1C1",
"@	c #ADADAD",
"#	c #AFAFAF",
"$	c #B2B2B2",
"%	c #9A9A9A",
"&	c #C8C8C8",
"*	c #B4B4B4",
"=	c #9D9D9D",
"-	c #CACACA",
";	c #B7B7B7",
">	c #A0A0A0",
",	c #CCCCCC",
"'	c #BABABA",
")	c #464646",
"!	c #C3C3C3",
"~	c #A1A1A1",
"{	c #CECECE",
"]	c #BCBCBC",
"^	c #D6D6D6",
"/	c #A4A4A4",
"(	c #D0D0D0",
"_	c #BFBFBF",
":	c #C7C7C7",
"<	c #D8D8D8",
"[	c #A6A6A6",
"}	c #D1D1D1",
"|	c #C9C9C9",
"1	c #D9D9D9",
"2	c #A8A8A8",
"3	c #C4C4C4",
"4	c #DBDBDB",
"5	c #ABABAB",
"6	c #DDDDDD",
"7	c #ACACAC",
"8	c #D7D7D7",
"9	c #DEDEDE",
"0	c #E0E0E0",
"a	c #DCDCDC",
"b	c #CFCFCF",
"c	c #E2E2E2",
"d	c #B3B3B3",
"e	c #E3E3E3",
"f	c #B6B6B6",
"g	c #DFDFDF",
"h	c #E5E5E5",
"i	c #B8B8B8",
"j	c #E1E1E1",
"k	c #E6E6E6",
"l	c #E8E8E8",
"m	c #BDBDBD",
"n	c #C5C5C5",
"..........................",
"++++++++++++++++++++++++++",
"@@@@@@@@@@@@@@@@@@@@@@@@@@",
"##########################",
"$$$$$$$$$$$$$$$$$$$$$$$$$$",
"%&************************",
"=-;;;;;;;;;;;;;;;;;;;;;;;;",
">,''''''))))))))))))!'''''",
"~{]]]]]]){^^^^^^^^^)^]]]]]",
"/(______):_________)<_____",
"[}++++++)|+++++++++)1+++++",
"2.333333),333333333)433333",
"5^::::::)|:::::::::)6:::::",
"78||||||),:::::::||)9|||||",
"#1,,,,,,)))))),,,,,)0,,,,,",
"$abbbbbb)8999):bbbb)cbbbbb",
"d6}}}}}})8}}})|}}}})e}}}}}",
"fg......)1...),....)h.....",
"ij^^^^^^))))))))))))k^^^^^",
"'e111119lllllllllllll11111",
"mhaaaaaaaaaaaaaaaaaaaaaaaa",
"99999999999999999999999999",
"jjjjjjjjjjjjjjjjjjjjjjjjjj",
"eeeeeeeeeeeeeeeeeeeeeeeeee",
"nnnnnnnnnnnnnnnnnnnnnnnnnn",
">>>>>>>>>>>>>>>>>>>>>>>>>>"};
