/* XPM */
static char * button_focus_close_pressed_xpm[] = {
"26 26 107 2",
"  	c None",
". 	c #7BA8E7",
"+ 	c #7DAAE9",
"@ 	c #6390CF",
"# 	c #80ADEC",
"$ 	c #6794D3",
"% 	c #4673B2",
"& 	c #82AFEE",
"* 	c #6996D5",
"= 	c #4976B5",
"- 	c #85B2F0",
"; 	c #6C99D7",
"> 	c #4D7AB8",
", 	c #87B4F2",
"' 	c #6F9CDA",
") 	c #507DBB",
"! 	c #2F5C9A",
"~ 	c #8AB7F4",
"{ 	c #729FDC",
"] 	c #5481BE",
"^ 	c #325F9C",
"/ 	c #8CB9F6",
"( 	c #76A3E0",
"_ 	c #5885C2",
": 	c #3663A0",
"< 	c #8EBBF8",
"[ 	c #78A5E2",
"} 	c #5B88C5",
"| 	c #3865A2",
"1 	c #91BEFA",
"2 	c #7BA8E4",
"3 	c #5F8CC8",
"4 	c #3C69A5",
"5 	c #93C0FC",
"6 	c #7EABE7",
"7 	c #628FCB",
"8 	c #5983BC",
"9 	c #1E3B50",
"0 	c #749BCF",
"a 	c #3E6BA7",
"b 	c #96C3FE",
"c 	c #81AEE9",
"d 	c #6693CE",
"e 	c #5176A8",
"f 	c #FFFFFF",
"g 	c #A1BCDF",
"h 	c #416EA9",
"i 	c #98C5FF",
"j 	c #83B0EB",
"k 	c #6996D1",
"l 	c #577CAD",
"m 	c #FFEDED",
"n 	c #DDDDDD",
"o 	c #A5C0E3",
"p 	c #4471AC",
"q 	c #9BC8FF",
"r 	c #87B4EF",
"s 	c #6D9AD5",
"t 	c #5D82B3",
"u 	c #A9C4E7",
"v 	c #4774AF",
"w 	c #9DCAFF",
"x 	c #89B6F1",
"y 	c #709DD8",
"z 	c #6085B6",
"A 	c #ABC6E9",
"B 	c #4A77B2",
"C 	c #9FCCFF",
"D 	c #8CB9F3",
"E 	c #74A1DB",
"F 	c #6388B8",
"G 	c #ADC8EB",
"H 	c #4D7AB4",
"I 	c #A2CFFF",
"J 	c #8FBCF6",
"K 	c #77A4DE",
"L 	c #8DB3E5",
"M 	c #B0CBED",
"N 	c #507DB7",
"O 	c #A4D1FF",
"P 	c #92BFF8",
"Q 	c #7BA8E1",
"R 	c #5380B9",
"S 	c #A6D3FF",
"T 	c #95C2FB",
"U 	c #7EABE4",
"V 	c #5683BC",
"W 	c #A9D6FF",
"X 	c #98C5FE",
"Y 	c #82AFE8",
"Z 	c #5986BF",
"` 	c #ACD9FF",
" .	c #86B3EB",
"..	c #5C89C1",
"+.	c #AEDBFF",
"@.	c #9ECBFF",
"#.	c #89B6EE",
"$.	c #B1DEFF",
"%.	c #A1CEFF",
"&.	c #8DBAF1",
"*.	c #B3E0FF",
"=.	c #A3D0FF",
"-.	c #90BDF4",
";.	c #94C1F8",
">.	c #6895CC",
",.	c #6A97CE",
"'.	c #4875AC",
". . . . . . . . . . . . . . . . . . . . . . . . . . ",
"+ @ @ @ @ @ @ @ @ @ @ @ @ @ @ @ @ @ @ @ @ @ @ @ @ @ ",
"# $ % % % % % % % % % % % % % % % % % % % % % % % % ",
"& * = = = = = = = = = = = = = = = = = = = = = = = = ",
"- ; > > > > > > > > > > > > > > > > > > > > > > > > ",
", ' ) ) ) ) ) ) ) ) ) ) ) ) ) ) ) ) ) ) ) ) ) ) ! ' ",
"~ { ] ] ] ] ] ] ] ] ] ] ] ] ] ] ] ] ] ] ] ] ] ] ^ { ",
"/ ( _ _ _ _ _ _ _ _ _ _ _ _ _ _ _ _ _ _ _ _ _ _ : ( ",
"< [ } } } } } } } } } } } } } } } } } } } } } } | [ ",
"1 2 3 3 3 3 3 3 3 3 3 3 3 3 3 3 3 3 3 3 3 3 3 3 4 2 ",
"5 6 7 7 7 7 7 7 7 8 9 9 9 9 9 9 0 7 7 7 7 7 7 7 a 6 ",
"b c d d d d d d d e 9 f f f f 9 g d d d d d d d h c ",
"i j k k k k k k k l 9 m n n m 9 o k k k k k k k p j ",
"q r s s s s s s s t 9 m f f m 9 u s s s s s s s v r ",
"w x y y y y y y y z 9 m m m m 9 A y y y y y y y B x ",
"C D E E E E E E E F 9 9 9 9 9 9 G E E E E E E E H D ",
"I J K K K K K K K L M M M M M M M K K K K K K K N J ",
"O P Q Q Q Q Q Q Q Q Q Q Q Q Q Q Q Q Q Q Q Q Q Q R P ",
"S T U U U U U U U U U U U U U U U U U U U U U U V T ",
"W X Y Y Y Y Y Y Y Y Y Y Y Y Y Y Y Y Y Y Y Y Y Y Z X ",
"` q  . . . . . . . . . . . . . . . . . . . . . ...q ",
"+.@.#.#.#.#.#.#.#.#.#.#.#.#.#.#.#.#.#.#.#.#.#.#.#.#.",
"$.%.&.&.&.&.&.&.&.&.&.&.&.&.&.&.&.&.&.&.&.&.&.&.&.&.",
"*.=.-.-.-.-.-.-.-.-.-.-.-.-.-.-.-.-.-.-.-.-.-.-.-.-.",
";.>.>.>.>.>.>.>.>.>.>.>.>.>.>.>.>.>.>.>.>.>.>.>.>.>.",
",.'.'.'.'.'.'.'.'.'.'.'.'.'.'.'.'.'.'.'.'.'.'.'.'.'."};
