/* XPM */
static char * button_unfocus_max_xpm[] = {
"26 26 92 2",
"  	c None",
". 	c #D4D4D4",
"+ 	c #C1C1C1",
"@ 	c #757575",
"# 	c #ADADAD",
"$ 	c #949494",
"% 	c #777777",
"& 	c #AFAFAF",
"* 	c #969696",
"= 	c #787878",
"- 	c #B2B2B2",
"; 	c #999999",
"> 	c #7A7A7A",
", 	c #9A9A9A",
"' 	c #C8C8C8",
") 	c #B4B4B4",
"! 	c #7C7C7C",
"~ 	c #9D9D9D",
"{ 	c #CACACA",
"] 	c #B7B7B7",
"^ 	c #7E7E7E",
"/ 	c #A0A0A0",
"( 	c #CCCCCC",
"_ 	c #BABABA",
": 	c #404440",
"< 	c #484448",
"[ 	c #C0C0C0",
"} 	c #808080",
"| 	c #A1A1A1",
"1 	c #CECECE",
"2 	c #BCBCBC",
"3 	c #D0D4D0",
"4 	c #404840",
"5 	c #818181",
"6 	c #A4A4A4",
"7 	c #D0D0D0",
"8 	c #BFBFBF",
"9 	c #C0C4C0",
"0 	c #838383",
"a 	c #A6A6A6",
"b 	c #D1D1D1",
"c 	c #D8D8D8",
"d 	c #848484",
"e 	c #A8A8A8",
"f 	c #C4C4C4",
"g 	c #868686",
"h 	c #ABABAB",
"i 	c #D6D6D6",
"j 	c #C7C7C7",
"k 	c #484848",
"l 	c #898989",
"m 	c #ACACAC",
"n 	c #D7D7D7",
"o 	c #C9C9C9",
"p 	c #D8DCD8",
"q 	c #8A8A8A",
"r 	c #D9D9D9",
"s 	c #484440",
"t 	c #C8D0C8",
"u 	c #D8E0D8",
"v 	c #8C8C8C",
"w 	c #DCDCDC",
"x 	c #CFCFCF",
"y 	c #D5D5D5",
"z 	c #404448",
"A 	c #8E8E8E",
"B 	c #B3B3B3",
"C 	c #DDDDDD",
"D 	c #E0E0E0",
"E 	c #8F8F8F",
"F 	c #B6B6B6",
"G 	c #DFDFDF",
"H 	c #D0D8D0",
"I 	c #E0E4E0",
"J 	c #919191",
"K 	c #B8B8B8",
"L 	c #E1E1E1",
"M 	c #484840",
"N 	c #404848",
"O 	c #939393",
"P 	c #E3E3E3",
"Q 	c #959595",
"R 	c #BDBDBD",
"S 	c #E5E5E5",
"T 	c #979797",
"U 	c #DEDEDE",
"V 	c #BEBEBE",
"W 	c #989898",
"X 	c #C3C3C3",
"Y 	c #9C9C9C",
"Z 	c #C5C5C5",
"` 	c #9E9E9E",
". . . . . . . . . . . . . . . . . . . . . . . . . . ",
"+ + + + + + + + + + + + + + + + + + + + + + + + + @ ",
"# # # # # # # # # # # # # # # # # # # # # # # # $ % ",
"& & & & & & & & & & & & & & & & & & & & & & & & * = ",
"- - - - - - - - - - - - - - - - - - - - - - - - ; > ",
", ' ) ) ) ) ) ) ) ) ) ) ) ) ) ) ) ) ) ) ) ) ) ) , ! ",
"~ { ] ] ] ] ] ] ] ] ] ] ] ] ] ] ] ] ] ] ] ] ] ] ~ ^ ",
"/ ( _ _ _ _ _ : < : < : < : < : < : < [ _ _ _ _ / } ",
"| 1 2 2 2 2 2 : ' 3 3 3 4 ' 3 3 3 3 4 3 2 2 2 2 | 5 ",
"6 7 8 8 8 8 8 < 9 8 8 8 : 9 8 8 8 8 < 3 8 8 8 8 6 0 ",
"a b + + + + + : ' + + + < ' + + + + : c + + + + a d ",
"e . f f f f f < ' f f f : ' f f f f < c f f f f e g ",
"h i j j j j j : k : k : k ' j j j j : c j j j j h l ",
"m n o o o o o : 3 p p p p 3 o o o o : p o o o o m q ",
"& r ( ( ( ( ( s t ( ( ( ( ( ( ( ( ( < u ( ( ( ( & v ",
"- w x x x x y z t x x x x x x x x x : u x x x x - A ",
"B C b b b b b s 3 b b b b b b b b b : D b b b b B E ",
"F G . . . . . : H . . . . . . . . . < I . . . . F J ",
"K L i i i i i z M z s z s N s z : s N I i i i i K O ",
"_ P r r r r r I I I I I I I I I I I I I r r r r _ Q ",
"R S w w w w w w w w w w w w w w w w w w w w w w R T ",
"U U U U U U U U U U U U U U U U U U U U U U U U V W ",
"L L L L L L L L L L L L L L L L L L L L L L L L + , ",
"P P P P P P P P P P P P P P P P P P P P P P P P X Y ",
"Z Z Z Z Z Z Z Z Z Z Z Z Z Z Z Z Z Z Z Z Z Z Z Z Z ` ",
"/ / / / / / / / / / / / / / / / / / / / / / / / / / "};
