/* XPM */
static char * button_focus_close_xpm[] = {
"26 26 113 2",
"  	c None",
". 	c #7BA8E7",
"+ 	c #7DAAE9",
"@ 	c #6390CF",
"# 	c #80ADEC",
"$ 	c #6794D3",
"% 	c #4673B2",
"& 	c #82AFEE",
"* 	c #6996D5",
"= 	c #4976B5",
"- 	c #85B2F0",
"; 	c #6C99D7",
"> 	c #4D7AB8",
", 	c #87B4F2",
"' 	c #6F9CDA",
") 	c #507DBB",
"! 	c #2F5C9A",
"~ 	c #8AB7F4",
"{ 	c #729FDC",
"] 	c #5481BE",
"^ 	c #325F9C",
"/ 	c #8CB9F6",
"( 	c #76A3E0",
"_ 	c #5885C2",
": 	c #3663A0",
"< 	c #8EBBF8",
"[ 	c #78A5E2",
"} 	c #5B88C5",
"| 	c #3865A2",
"1 	c #91BEFA",
"2 	c #7BA8E4",
"3 	c #5F8CC8",
"4 	c #5983BC",
"5 	c #1E3B50",
"6 	c #749BCF",
"7 	c #3C69A5",
"8 	c #93C0FC",
"9 	c #7EABE7",
"0 	c #628FCB",
"a 	c #5176A8",
"b 	c #FFFFFF",
"c 	c #A1BCDF",
"d 	c #3E6BA7",
"e 	c #96C3FE",
"f 	c #81AEE9",
"g 	c #6693CE",
"h 	c #547AAB",
"i 	c #FFEDED",
"j 	c #D4D4D4",
"k 	c #A3BEE1",
"l 	c #416EA9",
"m 	c #98C5FF",
"n 	c #83B0EB",
"o 	c #6996D1",
"p 	c #577CAD",
"q 	c #DDDDDD",
"r 	c #A5C0E3",
"s 	c #4471AC",
"t 	c #9BC8FF",
"u 	c #87B4EF",
"v 	c #6D9AD5",
"w 	c #5A80B1",
"x 	c #E2E2E2",
"y 	c #A7C2E5",
"z 	c #4774AF",
"A 	c #9DCAFF",
"B 	c #89B6F1",
"C 	c #709DD8",
"D 	c #5D82B3",
"E 	c #A9C4E7",
"F 	c #4A77B2",
"G 	c #9FCCFF",
"H 	c #8CB9F3",
"I 	c #74A1DB",
"J 	c #6085B6",
"K 	c #ABC6E9",
"L 	c #4D7AB4",
"M 	c #A2CFFF",
"N 	c #8FBCF6",
"O 	c #77A4DE",
"P 	c #6388B8",
"Q 	c #ADC8EB",
"R 	c #507DB7",
"S 	c #A4D1FF",
"T 	c #92BFF8",
"U 	c #7BA8E1",
"V 	c #8DB3E5",
"W 	c #B0CBED",
"X 	c #5380B9",
"Y 	c #A6D3FF",
"Z 	c #95C2FB",
"` 	c #7EABE4",
" .	c #5683BC",
"..	c #A9D6FF",
"+.	c #98C5FE",
"@.	c #82AFE8",
"#.	c #5986BF",
"$.	c #ACD9FF",
"%.	c #86B3EB",
"&.	c #5C89C1",
"*.	c #AEDBFF",
"=.	c #9ECBFF",
"-.	c #89B6EE",
";.	c #B1DEFF",
">.	c #A1CEFF",
",.	c #8DBAF1",
"'.	c #B3E0FF",
").	c #A3D0FF",
"!.	c #90BDF4",
"~.	c #94C1F8",
"{.	c #6895CC",
"].	c #6A97CE",
"^.	c #4875AC",
". . . . . . . . . . . . . . . . . . . . . . . . . . ",
"+ @ @ @ @ @ @ @ @ @ @ @ @ @ @ @ @ @ @ @ @ @ @ @ @ @ ",
"# $ % % % % % % % % % % % % % % % % % % % % % % % % ",
"& * = = = = = = = = = = = = = = = = = = = = = = = = ",
"- ; > > > > > > > > > > > > > > > > > > > > > > > > ",
", ' ) ) ) ) ) ) ) ) ) ) ) ) ) ) ) ) ) ) ) ) ) ) ! ' ",
"~ { ] ] ] ] ] ] ] ] ] ] ] ] ] ] ] ] ] ] ] ] ] ] ^ { ",
"/ ( _ _ _ _ _ _ _ _ _ _ _ _ _ _ _ _ _ _ _ _ _ _ : ( ",
"< [ } } } } } } } } } } } } } } } } } } } } } } | [ ",
"1 2 3 3 3 3 3 3 4 5 5 5 5 5 5 5 5 6 3 3 3 3 3 3 7 2 ",
"8 9 0 0 0 0 0 0 a 5 b b b b b b 5 c 0 0 0 0 0 0 d 9 ",
"e f g g g g g g h 5 i j j j j i 5 k g g g g g g l f ",
"m n o o o o o o p 5 i q q q q i 5 r o o o o o o s n ",
"t u v v v v v v w 5 i x x x x i 5 y v v v v v v z u ",
"A B C C C C C C D 5 i b b b b i 5 E C C C C C C F B ",
"G H I I I I I I J 5 i i i i i i 5 K I I I I I I L H ",
"M N O O O O O O P 5 5 5 5 5 5 5 5 Q O O O O O O R N ",
"S T U U U U U U V W W W W W W W W W U U U U U U X T ",
"Y Z ` ` ` ` ` ` ` ` ` ` ` ` ` ` ` ` ` ` ` ` ` `  .Z ",
"..+.@.@.@.@.@.@.@.@.@.@.@.@.@.@.@.@.@.@.@.@.@.@.#.+.",
"$.t %.%.%.%.%.%.%.%.%.%.%.%.%.%.%.%.%.%.%.%.%.%.&.t ",
"*.=.-.-.-.-.-.-.-.-.-.-.-.-.-.-.-.-.-.-.-.-.-.-.-.-.",
";.>.,.,.,.,.,.,.,.,.,.,.,.,.,.,.,.,.,.,.,.,.,.,.,.,.",
"'.).!.!.!.!.!.!.!.!.!.!.!.!.!.!.!.!.!.!.!.!.!.!.!.!.",
"~.{.{.{.{.{.{.{.{.{.{.{.{.{.{.{.{.{.{.{.{.{.{.{.{.{.",
"].^.^.^.^.^.^.^.^.^.^.^.^.^.^.^.^.^.^.^.^.^.^.^.^.^."};
