/* XPM */
static char * button_focus_min_xpm[] = {
"26 26 94 2",
"  	c None",
". 	c #7BA8E7",
"+ 	c #6390CF",
"@ 	c #4673B2",
"# 	c #4976B5",
"$ 	c #4D7AB8",
"% 	c #2F5C9A",
"& 	c #6F9CDA",
"* 	c #507DBB",
"= 	c #325F9C",
"- 	c #729FDC",
"; 	c #5481BE",
"> 	c #3663A0",
", 	c #76A3E0",
"' 	c #5885C2",
") 	c #527DB6",
"! 	c #1E3B50",
"~ 	c #6E95CA",
"{ 	c #3865A2",
"] 	c #78A5E2",
"^ 	c #5B88C5",
"/ 	c #4B71A3",
"( 	c #FFEDED",
"_ 	c #9CB7DC",
": 	c #3C69A5",
"< 	c #7BA8E4",
"[ 	c #5F8CC8",
"} 	c #4F74A6",
"| 	c #B1B1B1",
"1 	c #9FBADE",
"2 	c #3E6BA7",
"3 	c #7EABE7",
"4 	c #628FCB",
"5 	c #5176A8",
"6 	c #B8B8B8",
"7 	c #A1BCDF",
"8 	c #416EA9",
"9 	c #81AEE9",
"0 	c #6693CE",
"a 	c #547AAB",
"b 	c #BFBFBF",
"c 	c #A3BEE1",
"d 	c #4471AC",
"e 	c #83B0EB",
"f 	c #6996D1",
"g 	c #577CAD",
"h 	c #A5C0E3",
"i 	c #4774AF",
"j 	c #87B4EF",
"k 	c #6D9AD5",
"l 	c #5A80B1",
"m 	c #CECECE",
"n 	c #A7C2E5",
"o 	c #4A77B2",
"p 	c #89B6F1",
"q 	c #709DD8",
"r 	c #5D82B3",
"s 	c #D4D4D4",
"t 	c #A9C4E7",
"u 	c #4D7AB4",
"v 	c #8CB9F3",
"w 	c #74A1DB",
"x 	c #6085B6",
"y 	c #DDDDDD",
"z 	c #ABC6E9",
"A 	c #507DB7",
"B 	c #8FBCF6",
"C 	c #77A4DE",
"D 	c #6388B8",
"E 	c #E2E2E2",
"F 	c #ADC8EB",
"G 	c #5380B9",
"H 	c #92BFF8",
"I 	c #7BA8E1",
"J 	c #668BBB",
"K 	c #B0CBED",
"L 	c #5683BC",
"M 	c #95C2FB",
"N 	c #7EABE4",
"O 	c #688EBD",
"P 	c #B1CCEE",
"Q 	c #5986BF",
"R 	c #98C5FE",
"S 	c #82AFE8",
"T 	c #93B9EB",
"U 	c #B4CFF1",
"V 	c #5C89C1",
"W 	c #9BC8FF",
"X 	c #86B3EB",
"Y 	c #89B6EE",
"Z 	c #8DBAF1",
"` 	c #90BDF4",
" .	c #6895CC",
"..	c #4875AC",
". . . . . . . . . . . . . . . . . . . . . . . . . . ",
"+ + + + + + + + + + + + + + + + + + + + + + + + + + ",
"@ @ @ @ @ @ @ @ @ @ @ @ @ @ @ @ @ @ @ @ @ @ @ @ @ @ ",
"# # # # # # # # # # # # # # # # # # # # # # # # # # ",
"$ $ $ $ $ $ $ $ $ $ $ $ $ $ $ $ $ $ $ $ $ $ $ $ $ $ ",
"% & * * * * * * * * * * * * * * * * * * * * * * * * ",
"= - ; ; ; ; ; ; ; ; ; ; ; ; ; ; ; ; ; ; ; ; ; ; ; ; ",
"> , ' ' ' ' ' ) ! ! ! ! ! ! ! ! ! ! ! ! ~ ' ' ' ' ' ",
"{ ] ^ ^ ^ ^ ^ / ! ( ( ( ( ( ( ( ( ( ( ! _ ^ ^ ^ ^ ^ ",
": < [ [ [ [ [ } ! ( | | | | | | | | ( ! 1 [ [ [ [ [ ",
"2 3 4 4 4 4 4 5 ! ( 6 6 6 6 6 6 6 6 ( ! 7 4 4 4 4 4 ",
"8 9 0 0 0 0 0 a ! ( b b b b b b b b ( ! c 0 0 0 0 0 ",
"d e f f f f f g ! ( b b b b b b b b ( ! h f f f f f ",
"i j k k k k k l ! ( m m m m m m m m ( ! n k k k k k ",
"o p q q q q q r ! ! ! ! ! ! s s s s ( ! t q q q q q ",
"u v w w w w w x ! ( ( ( ( ! y y y y ( ! z w w w w w ",
"A B C C C C C D ! ( E E ( ! E E E E ( ! F C C C C C ",
"G H I I I I I J ! s b b b ! b b b b s ! K I I I I I ",
"L M N N N N N O ! ! ! ! ! ! ! ! ! ! ! ! P N N N N N ",
"Q R S S S S S T U U U U U U U U U U U U U S S S S S ",
"V W X X X X X X X X X X X X X X X X X X X X X X X X ",
"Y Y Y Y Y Y Y Y Y Y Y Y Y Y Y Y Y Y Y Y Y Y Y Y Y Y ",
"Z Z Z Z Z Z Z Z Z Z Z Z Z Z Z Z Z Z Z Z Z Z Z Z Z Z ",
"` ` ` ` ` ` ` ` ` ` ` ` ` ` ` ` ` ` ` ` ` ` ` ` ` ` ",
" . . . . . . . . . . . . . . . . . . . . . . . . . .",
"...................................................."};
