/* XPM */
static char * button_focus_max_xpm[] = {
"26 26 138 2",
"  	c None",
". 	c #7BA8E7",
"+ 	c #6390CF",
"@ 	c #0B3877",
"# 	c #4673B2",
"$ 	c #275493",
"% 	c #0E3B7A",
"& 	c #4976B5",
"* 	c #295695",
"= 	c #103D7C",
"- 	c #4D7AB8",
"; 	c #2C5997",
"> 	c #13407E",
", 	c #2F5C9A",
"' 	c #6F9CDA",
") 	c #507DBB",
"! 	c #154280",
"~ 	c #325F9C",
"{ 	c #729FDC",
"] 	c #5481BE",
"^ 	c #184582",
"/ 	c #3663A0",
"( 	c #76A3E0",
"_ 	c #5885C2",
": 	c #5074B0",
"< 	c #183850",
"[ 	c #203C50",
"} 	c #203850",
"| 	c #183C50",
"1 	c #6890C8",
"2 	c #1B4885",
"3 	c #3865A2",
"4 	c #78A5E2",
"5 	c #5B88C5",
"6 	c #4068A0",
"7 	c #F8FCF8",
"8 	c #183848",
"9 	c #F8ECE8",
"0 	c #98B4D8",
"a 	c #1D4A87",
"b 	c #3C69A5",
"c 	c #7BA8E4",
"d 	c #5F8CC8",
"e 	c #486CA0",
"f 	c #D0D4D0",
"g 	c #B0B0B0",
"h 	c #B0B0A8",
"i 	c #204D89",
"j 	c #3E6BA7",
"k 	c #7EABE7",
"l 	c #628FCB",
"m 	c #5070A0",
"n 	c #D0D0D0",
"o 	c #B8B8B8",
"p 	c #B0B4B0",
"q 	c #B0B8B8",
"r 	c #B8B4B0",
"s 	c #A0B8D8",
"t 	c #224F8B",
"u 	c #416EA9",
"v 	c #81AEE9",
"w 	c #6693CE",
"x 	c #B8BCB8",
"y 	c #C0BCB8",
"z 	c #A0BCE0",
"A 	c #25528D",
"B 	c #4471AC",
"C 	c #83B0EB",
"D 	c #6996D1",
"E 	c #5874A0",
"F 	c #203C48",
"G 	c #203848",
"H 	c #B8C0C0",
"I 	c #C0BCC0",
"J 	c #A8BCE0",
"K 	c #27548F",
"L 	c #4774AF",
"M 	c #87B4EF",
"N 	c #6D9AD5",
"O 	c #5878A8",
"P 	c #C8CCC8",
"Q 	c #A8C0E0",
"R 	c #2A5792",
"S 	c #4A77B2",
"T 	c #89B6F1",
"U 	c #709DD8",
"V 	c #607CA8",
"W 	c #2C5994",
"X 	c #4D7AB4",
"Y 	c #8CB9F3",
"Z 	c #74A1DB",
"` 	c #6080A8",
" .	c #D8DCD8",
"..	c #D8D8D8",
"+.	c #A8C4E0",
"@.	c #2F5C96",
"#.	c #507DB7",
"$.	c #8FBCF6",
"%.	c #77A4DE",
"&.	c #6080B0",
"*.	c #E0E0E0",
"=.	c #E0E0D8",
"-.	c #D8E0E0",
";.	c #B0C8E8",
">.	c #315E98",
",.	c #5380B9",
"'.	c #92BFF8",
").	c #7BA8E1",
"!.	c #6884B0",
"~.	c #34619A",
"{.	c #5683BC",
"].	c #95C2FB",
"^.	c #7EABE4",
"/.	c #6888B8",
"(.	c #B0CCF0",
"_.	c #36639C",
":.	c #5986BF",
"<.	c #98C5FE",
"[.	c #82AFE8",
"}.	c #98B8E8",
"|.	c #B8CCF0",
"1.	c #39669F",
"2.	c #5C89C1",
"3.	c #9BC8FF",
"4.	c #86B3EB",
"5.	c #3C69A1",
"6.	c #89B6EE",
"7.	c #5F8CC4",
"8.	c #3E6BA3",
"9.	c #8DBAF1",
"0.	c #628FC6",
"a.	c #416EA5",
"b.	c #90BDF4",
"c.	c #6592C9",
"d.	c #4370A7",
"e.	c #6895CC",
"f.	c #4673AA",
"g.	c #4875AC",
". . . . . . . . . . . . . . . . . . . . . . . . . . ",
"+ + + + + + + + + + + + + + + + + + + + + + + + + @ ",
"# # # # # # # # # # # # # # # # # # # # # # # # $ % ",
"& & & & & & & & & & & & & & & & & & & & & & & & * = ",
"- - - - - - - - - - - - - - - - - - - - - - - - ; > ",
", ' ) ) ) ) ) ) ) ) ) ) ) ) ) ) ) ) ) ) ) ) ) ) , ! ",
"~ { ] ] ] ] ] ] ] ] ] ] ] ] ] ] ] ] ] ] ] ] ] ] ~ ^ ",
"/ ( _ _ _ _ : < [ } | } [ < [ } | } | 1 _ _ _ _ / 2 ",
"3 4 5 5 5 5 6 [ 7 7 7 7 8 9 9 9 9 9 8 0 5 5 5 5 3 a ",
"b c d d d d e 8 9 f f 9 < g h g h 9 [ 0 d d d d b i ",
"j k l l l l m [ 9 n f 9 8 o p q r 9 8 s l l l l j t ",
"u v w w w w m 8 9 7 7 9 | x y x x 9 | z w w w w u A ",
"B C D D D D E [ < F < G [ y H x I 9 8 J D D D D B K ",
"L M N N N N O < 9 9 9 9 9 P P P P 9 [ Q N N N N L R ",
"S T U U U U V [ 9 f n f n f f f f 9 < Q U U U U S W ",
"X Y Z Z Z Z ` 8 9  . . . . . ... .9 [ +.Z Z Z Z X @.",
"#.$.%.%.%.%.&.[ 9 *.=.-.=.*.-.=.*.9 8 ;.%.%.%.%.#.>.",
",.'.).).).).!.8 f x x x x x x x x f < ;.).).).).,.~.",
"{.].^.^.^.^./.[ < [ < [ < [ < [ < F } (.^.^.^.^.{._.",
":.<.[.[.[.[.}.|.|.|.|.|.|.|.|.|.|.|.|.|.[.[.[.[.:.1.",
"2.3.4.4.4.4.4.4.4.4.4.4.4.4.4.4.4.4.4.4.4.4.4.4.2.5.",
"6.6.6.6.6.6.6.6.6.6.6.6.6.6.6.6.6.6.6.6.6.6.6.6.7.8.",
"9.9.9.9.9.9.9.9.9.9.9.9.9.9.9.9.9.9.9.9.9.9.9.9.0.a.",
"b.b.b.b.b.b.b.b.b.b.b.b.b.b.b.b.b.b.b.b.b.b.b.b.c.d.",
"e.e.e.e.e.e.e.e.e.e.e.e.e.e.e.e.e.e.e.e.e.e.e.e.e.f.",
"g.g.g.g.g.g.g.g.g.g.g.g.g.g.g.g.g.g.g.g.g.g.g.g.g.g."};
