/* XPM */
static char * button_focus_min_pressed_xpm[] = {
"26 26 75 1",
" 	c #7BA8E7",
".	c #6390CF",
"+	c #4673B2",
"@	c #4976B5",
"#	c #4D7AB8",
"$	c #2F5C9A",
"%	c #6F9CDA",
"&	c #507DBB",
"*	c #325F9C",
"=	c #729FDC",
"-	c #5481BE",
";	c #3663A0",
">	c #76A3E0",
",	c #5885C2",
"'	c #3865A2",
")	c #78A5E2",
"!	c #5B88C5",
"~	c #3C69A5",
"{	c #7BA8E4",
"]	c #5F8CC8",
"^	c #3E6BA7",
"/	c #7EABE7",
"(	c #628FCB",
"_	c #416EA9",
":	c #81AEE9",
"<	c #6693CE",
"[	c #4471AC",
"}	c #83B0EB",
"|	c #6996D1",
"1	c #4774AF",
"2	c #87B4EF",
"3	c #6D9AD5",
"4	c #4A77B2",
"5	c #89B6F1",
"6	c #709DD8",
"7	c #668FC5",
"8	c #1E3B50",
"9	c #8DB1E0",
"0	c #4D7AB4",
"a	c #8CB9F3",
"b	c #74A1DB",
"c	c #6085B6",
"d	c #FFEDED",
"e	c #ABC6E9",
"f	c #507DB7",
"g	c #8FBCF6",
"h	c #77A4DE",
"i	c #6388B8",
"j	c #E2E2E2",
"k	c #ADC8EB",
"l	c #5380B9",
"m	c #92BFF8",
"n	c #7BA8E1",
"o	c #668BBB",
"p	c #D4D4D4",
"q	c #BFBFBF",
"r	c #B0CBED",
"s	c #5683BC",
"t	c #95C2FB",
"u	c #7EABE4",
"v	c #688EBD",
"w	c #B1CCEE",
"x	c #5986BF",
"y	c #98C5FE",
"z	c #82AFE8",
"A	c #93B9EB",
"B	c #B4CFF1",
"C	c #5C89C1",
"D	c #9BC8FF",
"E	c #86B3EB",
"F	c #89B6EE",
"G	c #8DBAF1",
"H	c #90BDF4",
"I	c #6895CC",
"J	c #4875AC",
"                          ",
"..........................",
"++++++++++++++++++++++++++",
"@@@@@@@@@@@@@@@@@@@@@@@@@@",
"##########################",
"$%&&&&&&&&&&&&&&&&&&&&&&&&",
"*=------------------------",
";>,,,,,,,,,,,,,,,,,,,,,,,,",
"')!!!!!!!!!!!!!!!!!!!!!!!!",
"~{]]]]]]]]]]]]]]]]]]]]]]]]",
"^/((((((((((((((((((((((((",
"_:<<<<<<<<<<<<<<<<<<<<<<<<",
"[}||||||||||||||||||||||||",
"12333333333333333333333333",
"45666667888888966666666666",
"0abbbbbc8dddd8ebbbbbbbbbbb",
"fghhhhhi8djjd8khhhhhhhhhhh",
"lmnnnnno8pqqq8rnnnnnnnnnnn",
"stuuuuuv888888wuuuuuuuuuuu",
"xyzzzzzABBBBBBBzzzzzzzzzzz",
"CDEEEEEEEEEEEEEEEEEEEEEEEE",
"FFFFFFFFFFFFFFFFFFFFFFFFFF",
"GGGGGGGGGGGGGGGGGGGGGGGGGG",
"HHHHHHHHHHHHHHHHHHHHHHHHHH",
"IIIIIIIIIIIIIIIIIIIIIIIIII",
"JJJJJJJJJJJJJJJJJJJJJJJJJJ"};
