/* XPM */
static char * menu_selected_xpm[] = {
"1 22 4 1",
" 	c None",
".	c #507CC8",
"+	c #3868B0",
"@	c #284890",
".",
"+",
"+",
"+",
"+",
"+",
"+",
"+",
"+",
"+",
"+",
"+",
"+",
"+",
"+",
"+",
"+",
"+",
"+",
"+",
"+",
"@"};
