/* XPM */
static char * selected_xpm[] = {
"22 22 53 1",
" 	c None",
".	c #2C568C",
"+	c #2A5285",
"@	c #3566A9",
"#	c #08101C",
"$	c #000000",
"%	c #1A3354",
"&	c #214169",
"*	c #0B1423",
"=	c #2C588C",
"-	c #284C7E",
";	c #505450",
">	c #384038",
",	c #101010",
"'	c #101410",
")	c #585858",
"!	c #686868",
"~	c #484C48",
"{	c #282428",
"]	c #E8ECE8",
"^	c #F0F4F0",
"/	c #C8CCC8",
"(	c #F0F0F0",
"_	c #F8F4F8",
":	c #606060",
"<	c #202020",
"[	c #404840",
"}	c #B8BCB8",
"|	c #080C08",
"1	c #D0D4D0",
"2	c #F8FCF8",
"3	c #686468",
"4	c #404040",
"5	c #181C18",
"6	c #707070",
"7	c #787878",
"8	c #C8C8C8",
"9	c #A8A4A8",
"0	c #080808",
"a	c #303430",
"b	c #585C58",
"c	c #404C40",
"d	c #707470",
"e	c #C0C0C0",
"f	c #F8F8F8",
"g	c #303830",
"h	c #383838",
"i	c #E8F0E8",
"j	c #989C98",
"k	c #181818",
"l	c #E0E8E0",
"m	c #E0E4E0",
"n	c #505850",
"                      ",
"                .+    ",
"               @#$%   ",
"               +$$&   ",
"               *$*    ",
"              =$$-    ",
"     ;>>>>>>>>,$'@    ",
"     >)!!!!!!~$${     ",
"     >!]^/(^_:$<[     ",
"     >!}:|121|$3~     ",
"     4!5$$627$,8~     ",
"     >!90$0}a$b(c     ",
"     >!^d$$,$$e(~     ",
"     >!^fg$$$hfi~     ",
"     >!^29$$$j2i~     ",
"     >!f22)k622(~     ",
"     >:l]i](i(im[     ",
"     ;4~~~~~~~~[n     ",
"                      ",
"                      ",
"                      ",
"                      "};
