/* XPM */
static char * selected_black_xpm[] = {
"22 22 52 1",
" 	c None",
".	c #A0A8A0",
"+	c #98A098",
"@	c #C0C8C0",
"#	c #202020",
"$	c #000000",
"%	c #606460",
"&	c #788078",
"*	c #282828",
"=	c #A0ACA0",
"-	c #909490",
";	c #505450",
">	c #384038",
",	c #101010",
"'	c #101410",
")	c #585858",
"!	c #686868",
"~	c #484C48",
"{	c #282428",
"]	c #E8ECE8",
"^	c #F0F4F0",
"/	c #C8CCC8",
"(	c #F0F0F0",
"_	c #F8F4F8",
":	c #606060",
"<	c #404840",
"[	c #B8BCB8",
"}	c #080C08",
"|	c #D0D4D0",
"1	c #F8FCF8",
"2	c #686468",
"3	c #404040",
"4	c #181C18",
"5	c #707070",
"6	c #787878",
"7	c #C8C8C8",
"8	c #A8A4A8",
"9	c #080808",
"0	c #303430",
"a	c #585C58",
"b	c #404C40",
"c	c #707470",
"d	c #C0C0C0",
"e	c #F8F8F8",
"f	c #303830",
"g	c #383838",
"h	c #E8F0E8",
"i	c #989C98",
"j	c #181818",
"k	c #E0E8E0",
"l	c #E0E4E0",
"m	c #505850",
"                      ",
"                .+    ",
"               @#$%   ",
"               +$$&   ",
"               *$*    ",
"              =$$-    ",
"     ;>>>>>>>>,$'@    ",
"     >)!!!!!!~$${     ",
"     >!]^/(^_:$#<     ",
"     >![:}|1|}$2~     ",
"     3!4$$516$,7~     ",
"     >!89$9[0$a(b     ",
"     >!^c$$,$$d(~     ",
"     >!^ef$$$geh~     ",
"     >!^18$$$i1h~     ",
"     >!e11)j511(~     ",
"     >:k]h](h(hl<     ",
"     ;3~~~~~~~~<m     ",
"                      ",
"                      ",
"                      ",
"                      "};
