/* XPM */
static char * window_unfocused_xpm[] = {
"1 26 24 1",
" 	c #D4D4D4",
".	c #C1C1C1",
"+	c #ADADAD",
"@	c #AFAFAF",
"#	c #B2B2B2",
"$	c #B4B4B4",
"%	c #B7B7B7",
"&	c #BABABA",
"*	c #BCBCBC",
"=	c #BFBFBF",
"-	c #C4C4C4",
";	c #C7C7C7",
">	c #C9C9C9",
",	c #CCCCCC",
"'	c #CFCFCF",
")	c #D1D1D1",
"!	c #D6D6D6",
"~	c #D9D9D9",
"{	c #DCDCDC",
"]	c #DEDEDE",
"^	c #E1E1E1",
"/	c #E3E3E3",
"(	c #C5C5C5",
"_	c #A0A0A0",
" ",
".",
"+",
"@",
"#",
"$",
"%",
"&",
"*",
"=",
".",
"-",
";",
">",
",",
"'",
")",
" ",
"!",
"~",
"{",
"]",
"^",
"/",
"(",
"_"};
