/* XPM */
static char * maximize_active_xpm[] = {
"14 25 12 1",
" 	c None",
".	c #6B6B6B",
"+	c #F2F2F2",
"@	c #FFFFFF",
"#	c #FBFBFB",
"$	c #FDFDFD",
"%	c #EEEEEE",
"&	c #E0E0E0",
"*	c #D0D0D0",
"=	c #C4C4C4",
"-	c #ACACAC",
";	c #999999",
"              ",
"              ",
"              ",
"              ",
"              ",
"              ",
" ............ ",
" .++++.+++++. ",
" .+@@@.++@@+. ",
" .+#$$.+++++. ",
" ......%%%%+. ",
" .+&&&&&&&&+. ",
" .+********+. ",
" .+========+. ",
" .+--------+. ",
" .+;;;;;;;;+. ",
" .++++++++++. ",
" ............ ",
"              ",
"              ",
"              ",
"              ",
"              ",
"              ",
"              "};
