/* XPM */
static char * maximize_pressed_xpm[] = {
"14 25 17 1",
" 	c None",
".	c #717171",
"+	c #949494",
"@	c #CECECE",
"#	c #D7D7D7",
"$	c #9B9B9B",
"%	c #929292",
"&	c #8C8C8C",
"*	c #B7B7B7",
"=	c #848484",
"-	c #C2C2C2",
";	c #AEAEAE",
">	c #7D7D7D",
",	c #9E9E9E",
"'	c #727272",
")	c #919191",
"!	c #686868",
"              ",
"              ",
"              ",
"              ",
"              ",
"              ",
"              ",
"              ",
"  ..........  ",
"  .++++.+++.  ",
"  .@#$+.%%+.  ",
"  .@@@+.&&+.  ",
"  ......*=+.  ",
"  .@----;>+.  ",
"  .@****,'+.  ",
"  .@;;;;)!+.  ",
"  .@@@@@@@+.  ",
"  ..........  ",
"              ",
"              ",
"              ",
"              ",
"              ",
"              ",
"              "};
